<?xml version="1.0" standalone="no"?>
<!DOCTYPE svg PUBLIC "-//W3C//DTD SVG 20010904//EN"
 "http://www.w3.org/TR/2001/REC-SVG-20010904/DTD/svg10.dtd">
<svg version="1.0" xmlns="http://www.w3.org/2000/svg"
 width="193.000000pt" height="131.000000pt" viewBox="0 0 193.000000 131.000000"
 preserveAspectRatio="xMidYMid meet">

<g transform="translate(0.000000,131.000000) scale(0.100000,-0.100000)"
fill="#000000" stroke="none">
<path d="M478 1124 c-40 -21 -44 -53 -15 -126 29 -73 42 -122 52 -193 4 -27
15 -69 25 -92 17 -39 22 -43 54 -43 25 0 36 -4 36 -15 0 -8 -6 -15 -14 -15
-20 0 -61 -87 -48 -103 17 -22 20 -56 6 -68 -12 -10 -9 -15 16 -31 25 -15 31
-24 28 -48 -2 -19 5 -37 19 -52 11 -13 24 -32 27 -44 7 -21 -24 -123 -49 -160
-12 -19 -12 -24 0 -34 16 -14 13 -19 41 68 22 68 40 89 63 69 14 -13 46 -23
91 -30 8 -1 15 5 16 13 3 36 5 40 23 40 15 0 25 21 50 103 18 56 42 134 55
172 l23 70 7 -55 c4 -30 12 -71 19 -90 l11 -35 7 30 c4 17 7 50 8 75 2 67 17
83 28 30 7 -36 14 -46 46 -63 35 -18 40 -18 54 -4 23 22 12 40 -51 82 -79 52
-90 93 -49 182 25 54 122 81 188 51 28 -13 50 -75 41 -114 -6 -21 -12 -24 -50
-24 -45 0 -56 10 -56 51 0 12 -5 16 -15 13 -22 -9 -18 -48 8 -72 13 -12 28
-22 33 -22 25 0 66 -60 71 -104 10 -88 -60 -148 -155 -132 l-34 5 7 -47 c10
-68 30 -102 60 -102 22 0 25 -4 25 -35 0 -34 20 -49 35 -25 3 5 17 10 30 10
13 0 27 5 30 10 10 16 33 12 55 -10 14 -14 20 -33 20 -64 0 -26 6 -48 15 -56
26 -21 29 14 6 75 -27 73 -28 139 -1 162 13 12 20 30 20 55 0 26 6 41 21 52
15 10 20 21 16 36 -3 12 -1 35 5 51 9 25 6 34 -14 62 -13 17 -29 44 -36 60
-11 26 -10 27 17 27 16 0 38 8 50 18 24 19 71 138 71 178 0 13 9 59 21 101 11
42 19 92 17 112 -3 32 -7 37 -40 48 -32 10 -46 9 -95 -7 -32 -11 -74 -28 -93
-38 -87 -43 -230 -179 -270 -257 -22 -42 -40 -58 -40 -35 0 6 -4 10 -9 10 -6
0 -11 -15 -13 -32 -3 -32 -5 -33 -50 -36 l-48 -3 0 -62 c-1 -79 -10 -238 -16
-255 -2 -9 -19 -12 -51 -10 l-48 3 4 159 3 159 -23 -8 c-39 -12 -74 -11 -73 3
1 6 2 32 3 57 l1 45 124 0 125 0 -12 23 c-21 39 -96 128 -145 171 -59 53 -113
81 -205 106 -84 23 -75 23 -109 4z"/>
</g>
</svg>
